<?xml version="1.0" standalone="no"?>
<!DOCTYPE svg PUBLIC "-//W3C//DTD SVG 20010904//EN"
 "http://www.w3.org/TR/2001/REC-SVG-20010904/DTD/svg10.dtd">
<svg version="1.0" xmlns="http://www.w3.org/2000/svg"
 width="1920.000000pt" height="1920.000000pt" viewBox="0 0 1920.000000 1920.000000"
 preserveAspectRatio="xMidYMid meet">
<metadata>
Created by potrace 1.14, written by Peter Selinger 2001-2017
</metadata>
<g transform="translate(0.000000,1920.000000) scale(0.100000,-0.100000)"
fill="#000000" stroke="none">
<path d="M7128 16816 c-2 -12 -2 -435 -2 -941 1 -649 5 -945 13 -1005 12 -79
53 -194 108 -301 20 -37 26 -45 65 -90 46 -52 195 -118 303 -134 109 -16 226
-22 605 -30 292 -7 526 -14 570 -19 33 -4 136 -12 265 -21 148 -11 209 -16
214 -20 3 -1 29 -6 56 -9 28 -3 59 -7 70 -10 18 -3 98 -15 150 -21 30 -4 98
-15 121 -19 12 -2 45 -7 75 -11 129 -16 557 -125 644 -165 11 -4 47 -18 80
-30 75 -27 269 -120 273 -131 2 -5 8 -9 14 -9 22 0 185 -118 247 -180 70 -69
112 -124 160 -211 29 -54 85 -199 76 -199 -2 0 -1 -10 4 -23 21 -56 29 -211
17 -334 -28 -283 -105 -418 -342 -603 -29 -22 -56 -40 -62 -40 -5 0 -20 -8
-33 -18 -36 -28 -138 -82 -155 -82 -8 0 -14 -3 -14 -8 0 -6 -62 -38 -67 -34
-2 1 -22 -9 -45 -22 -24 -13 -101 -45 -173 -71 -71 -26 -157 -57 -190 -70 -64
-25 -240 -86 -520 -180 -93 -32 -183 -63 -200 -71 -16 -7 -82 -34 -145 -59
-63 -26 -131 -57 -151 -70 -61 -39 -106 -126 -145 -277 -10 -41 -13 -60 -19
-117 -3 -33 -8 -70 -10 -82 -14 -69 -18 -349 -19 -1182 -1 -511 1 -932 4 -936
3 -3 116 -7 253 -6 213 0 247 2 248 15 0 8 2 24 5 35 2 11 6 40 9 65 3 25 8
61 10 80 2 19 7 55 10 80 3 25 7 61 10 80 3 19 7 58 10 85 3 28 7 59 9 70 2
11 7 51 11 88 3 37 8 78 11 90 2 12 7 49 10 82 3 33 9 66 14 75 4 8 8 18 9 23
2 36 18 88 41 135 62 126 131 185 335 287 22 11 42 23 45 26 7 10 475 239 486
239 6 0 16 6 23 13 6 6 15 12 19 12 7 1 29 12 282 142 203 105 447 264 580
378 74 64 198 193 244 254 92 122 197 316 240 441 10 30 25 69 32 85 15 35 72
226 79 267 3 15 12 56 20 90 18 81 30 154 40 249 3 24 7 55 10 69 3 14 8 61
11 105 19 284 19 566 -1 775 -4 41 -8 95 -10 120 -2 25 -6 54 -9 66 -2 12 -7
45 -11 75 -4 30 -8 56 -10 59 -2 3 -6 26 -10 50 -10 74 -23 151 -29 175 -12
45 -22 82 -43 160 -14 50 -26 95 -27 100 -4 20 -19 63 -66 190 -52 140 -151
348 -219 461 -23 38 -47 78 -54 89 -12 20 -168 233 -197 269 -25 31 -252 259
-300 301 -136 120 -346 262 -515 347 -110 56 -314 139 -370 152 -45 10 -49 11
-62 19 -7 5 -13 6 -13 2 0 -3 -8 -1 -17 4 -10 5 -35 12 -57 15 -21 4 -42 8
-46 11 -3 2 -20 7 -36 10 -41 7 -75 14 -104 20 -160 36 -397 76 -525 90 -33 3
-78 8 -100 10 -22 3 -65 7 -95 10 -30 3 -73 7 -95 10 -22 2 -62 7 -90 9 -27 3
-68 7 -90 10 -22 2 -71 7 -110 11 -38 3 -81 8 -95 10 -14 2 -63 7 -110 10
-111 8 -193 14 -255 21 -27 3 -70 7 -95 10 -66 6 -162 21 -230 35 -25 5 -54
11 -65 13 -44 7 -125 35 -152 53 -83 53 -172 179 -174 245 0 18 -10 67 -22
108 l-22 75 -207 1 c-201 0 -206 0 -210 -20z"/>
<path d="M9207 8014 c-1 -1 -36 -4 -77 -7 -110 -8 -166 -16 -194 -27 -15 -5
-26 -8 -26 -5 0 2 -39 -10 -87 -26 -270 -94 -501 -282 -676 -550 -53 -81 -121
-221 -132 -269 -2 -8 -10 -34 -19 -57 -8 -24 -13 -43 -11 -43 3 0 0 -11 -5
-24 -5 -13 -11 -44 -15 -67 -3 -24 -8 -62 -11 -83 -6 -40 -7 -251 -1 -296 30
-225 113 -430 240 -595 87 -114 262 -273 357 -326 14 -8 27 -16 30 -19 28 -28
222 -106 322 -129 116 -27 167 -33 289 -36 131 -2 252 12 369 45 201 56 382
164 540 321 69 68 165 189 198 248 8 13 23 40 34 60 36 65 85 195 108 292 20
79 24 122 24 274 1 211 -6 266 -60 436 -93 298 -290 547 -564 715 -113 69
-292 135 -404 149 -22 3 -61 8 -85 11 -43 6 -140 11 -144 8z"/>
</g>
</svg>
